# xmcd CD database file
#
# Track frame offsets:
#	150
#	16222
#	38125
#	54332
#	69182
#	83825
#	105200
#	121937
#	141735
#	156475
#	174162
#	191795
#	206272
#	219780
#	233562
#	252245
#	261247
#
# Disc length: 3714 seconds
#
# Revision: 4
# Processed by: cddbd v1.5.1PL0 Copyright (c) Steve Scherf et al.
# Submitted via: CDex 1.60beta1-cs1
#
DISCID=dd0e8011
DTITLE=Lawrence Chow - The Pianist vol.2
DYEAR=1900
DGENRE=Blues
TTITLE0=最愛是誰（橫笛合奏）
TTITLE1=霧之戀（小提琴合奏）
TTITLE2=月半灣（口琴合奏）
TTITLE3=漣漪
TTITLE4=Hear me cry（日劇︰戀愛世紀）
TTITLE5=李香蘭（結他結奏）
TTITLE6=味道
TTITLE7=約定
TTITLE8=Somewhere in time
TTITLE9=你的名字我的姓氏（小提琴合奏）
TTITLE10=幻影
TTITLE11=陪著你走
TTITLE12=聽不到的說話
TTITLE13=彩雲曲
TTITLE14=偶遇
TTITLE15=舊夢不須記
TTITLE16=Homecoming
EXTD=
EXTT0=
EXTT1=
EXTT2=
EXTT3=
EXTT4=
EXTT5=
EXTT6=
EXTT7=
EXTT8=
EXTT9=
EXTT10=
EXTT11=
EXTT12=
EXTT13=
EXTT14=
EXTT15=
EXTT16=
PLAYORDER=
